<mxfile host="app.diagrams.net" modified="2022-09-19T16:36:15.525Z" agent="5.0 (Windows NT 10.0; Win64; x64) AppleWebKit/537.36 (KHTML, like Gecko) Chrome/105.0.0.0 Safari/537.36 Edg/105.0.1343.42" etag="jQ7hPQG_ZdN7SKSw3hyY" version="20.3.3" type="github">
  <diagram id="De-wwVtchZDKYVeCDeRQ" name="Страница 1">
    <mxGraphModel dx="473" dy="712" grid="1" gridSize="10" guides="1" tooltips="1" connect="1" arrows="1" fold="1" page="1" pageScale="1" pageWidth="827" pageHeight="1169" math="0" shadow="0">
      <root>
        <mxCell id="0" />
        <mxCell id="1" parent="0" />
        <mxCell id="89sMBqi7oA9i1qDa3Dwf-1" value="" style="shape=cylinder3;whiteSpace=wrap;html=1;boundedLbl=1;backgroundOutline=1;size=15;" vertex="1" parent="1">
          <mxGeometry x="220" y="330" width="60" height="80" as="geometry" />
        </mxCell>
        <mxCell id="89sMBqi7oA9i1qDa3Dwf-4" style="edgeStyle=orthogonalEdgeStyle;rounded=0;orthogonalLoop=1;jettySize=auto;html=1;exitX=0.75;exitY=0.1;exitDx=0;exitDy=0;exitPerimeter=0;" edge="1" parent="1" source="89sMBqi7oA9i1qDa3Dwf-2" target="89sMBqi7oA9i1qDa3Dwf-1">
          <mxGeometry relative="1" as="geometry">
            <mxPoint x="140" y="160" as="targetPoint" />
          </mxGeometry>
        </mxCell>
        <mxCell id="89sMBqi7oA9i1qDa3Dwf-2" value="Actor" style="shape=umlActor;verticalLabelPosition=bottom;verticalAlign=top;html=1;outlineConnect=0;" vertex="1" parent="1">
          <mxGeometry x="400" y="150" width="10" height="20" as="geometry" />
        </mxCell>
        <mxCell id="89sMBqi7oA9i1qDa3Dwf-5" style="edgeStyle=orthogonalEdgeStyle;rounded=0;orthogonalLoop=1;jettySize=auto;html=1;" edge="1" parent="1" source="89sMBqi7oA9i1qDa3Dwf-3" target="89sMBqi7oA9i1qDa3Dwf-2">
          <mxGeometry relative="1" as="geometry">
            <mxPoint x="410" y="295" as="targetPoint" />
          </mxGeometry>
        </mxCell>
        <mxCell id="89sMBqi7oA9i1qDa3Dwf-3" value="Actor" style="shape=umlActor;verticalLabelPosition=bottom;verticalAlign=top;html=1;outlineConnect=0;" vertex="1" parent="1">
          <mxGeometry x="80" y="150" width="140" height="290" as="geometry" />
        </mxCell>
      </root>
    </mxGraphModel>
  </diagram>
</mxfile>
